<svg id="Capa_1" data-name="Capa 1" xmlns="http://www.w3.org/2000/svg" viewBox="0 0 390.79 148.47"><defs><style>.cls-1{fill:#1c1c1c;}.cls-2{fill:#9c0500;}.cls-3{font-size:28px;}.cls-3,.cls-5{font-family:Arial-BoldMT, Arial;font-weight:700;}.cls-4{fill:#fff;}.cls-5{font-size:16px;fill:#850e00;}.cls-6{fill:#1b0f55;}.cls-7,.cls-8,.cls-9{fill:#002358;}.cls-8,.cls-9{stroke:#002358;stroke-width:0.25px;}.cls-9{stroke-miterlimit:10;}</style></defs><path d="M41.51,46.67V75L27.65,67.15l12.68-6.33L27.66,54.48Z" transform="translate(-27.65 50.23)"/><path d="M92.66,46.8l13.86,7.84L93.88,61l12.63,6.33L92.66,75.14Z" transform="translate(-27.65 50.23)"/><path d="M80.55,37.82l11.72-7.68V46L67.6,31.8l13.79-8.08C81.11,28.54,80.84,33,80.55,37.82Z" transform="translate(-27.65 50.23)"/><path d="M53.74,84.09,42,91.8V76l24.64,14.2L52.91,98.24C53.19,93.44,53.45,89,53.74,84.09Z" transform="translate(-27.65 50.23)"/><path class="cls-1" d="M42.27,30l11.67,7.65-.82-14.09,13.77,8.07L42.27,45.77Z" transform="translate(-27.65 50.23)"/><path d="M92.35,91.46,80.71,83.8l.78,14.07-13.73-8,24.59-14.2Z" transform="translate(-27.65 50.23)"/><path class="cls-2" d="M82.1,49.69l-12.56,8V42.48Z" transform="translate(-27.65 50.23)"/><path class="cls-2" d="M50.32,68.27V53.59L63.21,61Z" transform="translate(-27.65 50.23)"/><path class="cls-2" d="M64.81,56.85,52,49.7l12.83-7.39Z" transform="translate(-27.65 50.23)"/><path class="cls-2" d="M65.09,64.74V79.45c-4.35-2.49-8.4-4.82-12.75-7.33Z" transform="translate(-27.65 50.23)"/><path class="cls-2" d="M82.13,71.87,69.6,79V64.7Z" transform="translate(-27.65 50.23)"/><path class="cls-2" d="M71.52,61l12.3-7.14V68.23Z" transform="translate(-27.65 50.23)"/><path d="M431.05,85.05" transform="translate(-27.65 50.23)"/><text class="cls-3" transform="translate(82.08 112.76)">E &amp; H Maestranza Ltda.</text><path class="cls-4" d="M147.59-43.78" transform="translate(-27.65 50.23)"/><text x="-27.65" y="50.23"/><text class="cls-5" transform="translate(106.66 131.39) scale(0.99 1)">Servicio a la Industria y Minería</text><path class="cls-6" d="M73.32-50.23c0,6.22-.55,3,0,3" transform="translate(-27.65 50.23)"/><circle class="cls-7" cx="39.58" cy="111.42" r="1.12"/><line class="cls-8" x1="39.58" y1="108.42" x2="39.58" y2="114.42"/><line class="cls-9" x1="36.57" y1="111.42" x2="42.57" y2="111.42"/><line class="cls-9" x1="38.14" y1="109.98" x2="41.03" y2="112.87"/><line class="cls-9" x1="41.03" y1="109.98" x2="38.14" y2="112.87"/></svg>